<?xml version="1.0" standalone="no"?>
<!DOCTYPE svg PUBLIC "-//W3C//DTD SVG 20010904//EN"
 "http://www.w3.org/TR/2001/REC-SVG-20010904/DTD/svg10.dtd">
<svg version="1.0" xmlns="http://www.w3.org/2000/svg"
 width="553.000000pt" height="554.000000pt" viewBox="0 0 553.000000 554.000000"
 preserveAspectRatio="xMidYMid meet">

<g transform="translate(0.000000,554.000000) scale(0.100000,-0.100000)"
fill="#000000" stroke="none">
<path d="M2075 5269 c-297 -26 -611 -131 -863 -287 -471 -293 -792 -754 -907
-1302 -36 -170 -46 -487 -21 -660 64 -440 253 -823 559 -1132 533 -538 1322
-726 2042 -487 506 168 921 531 1158 1012 215 437 261 927 131 1407 -64 238
-185 478 -343 685 -68 90 -246 269 -336 340 -411 321 -908 470 -1420 424z
m460 -487 c307 -66 558 -203 780 -426 350 -351 506 -819 434 -1306 -118 -801
-862 -1383 -1664 -1300 -526 53 -982 363 -1218 828 -114 223 -156 387 -164
640 -4 114 -1 204 7 265 93 685 627 1216 1325 1317 100 15 398 4 500 -18z"/>
<path d="M4003 2067 c-129 -197 -353 -412 -613 -589 l-25 -16 215 -219 c601
-610 849 -858 888 -885 149 -103 311 -129 449 -71 137 56 279 218 324 366 42
135 13 277 -80 398 -27 35 -285 299 -573 587 l-524 523 -61 -94z"/>
</g>
</svg>
