<?xml version="1.0" standalone="no"?>
<!DOCTYPE svg PUBLIC "-//W3C//DTD SVG 20010904//EN"
 "http://www.w3.org/TR/2001/REC-SVG-20010904/DTD/svg10.dtd">
<svg version="1.0" xmlns="http://www.w3.org/2000/svg"
 width="532.000000pt" height="576.000000pt" viewBox="0 0 532.000000 576.000000"
 preserveAspectRatio="xMidYMid meet">

<g transform="translate(0.000000,576.000000) scale(0.100000,-0.100000)"
fill="#000000" stroke="none">
<path d="M2050 5750 c-541 -42 -1046 -279 -1420 -666 -333 -344 -539 -766
-606 -1239 -20 -144 -23 -428 -5 -565 100 -767 564 -1407 1258 -1737 621 -295
1375 -275 1985 53 l63 33 682 -682 683 -682 310 310 310 310 -661 661 c-364
364 -660 665 -658 670 2 5 34 54 70 109 175 263 286 545 340 865 33 194 33
516 0 708 -106 620 -445 1146 -966 1493 -109 73 -357 197 -480 239 -281 97
-619 142 -905 120z m433 -901 c512 -104 913 -496 1035 -1013 23 -97 26 -133
26 -286 1 -234 -28 -372 -120 -569 -270 -578 -917 -884 -1538 -726 -366 92
-680 343 -854 683 -102 197 -145 380 -145 607 0 227 43 410 145 607 209 409
598 670 1073 722 80 8 279 -4 378 -25z"/>
</g>
</svg>
